HIERARCHY
ROOT Hips
{
	OFFSET -351.999878 -572.954773 89.312325
	CHANNELS 6 Xposition Yposition Zposition Zrotation Yrotation Xrotation
	JOINT Spine
	{
		OFFSET 0.000000 2.080078 8.814247
		CHANNELS 6 Xposition Yposition Zposition Zrotation Yrotation Xrotation
		JOINT Spine1
		{
			OFFSET 0.000000 0.000000 8.844139
			CHANNELS 6 Xposition Yposition Zposition Zrotation Yrotation Xrotation
			JOINT Spine2
			{
				OFFSET 0.000000 0.000000 11.682266
				CHANNELS 6 Xposition Yposition Zposition Zrotation Yrotation Xrotation
				JOINT Spine3
				{
					OFFSET 0.000000 0.000000 11.746696
					CHANNELS 6 Xposition Yposition Zposition Zrotation Yrotation Xrotation
					JOINT Neck
					{
						OFFSET 0.000000 0.000000 17.658264
						CHANNELS 6 Xposition Yposition Zposition Zrotation Yrotation Xrotation
						JOINT Neck1
						{
							OFFSET 0.000000 0.000000 5.101517
							CHANNELS 6 Xposition Yposition Zposition Zrotation Yrotation Xrotation
							JOINT Head
							{
								OFFSET 0.000000 0.000000 5.101517
								CHANNELS 6 Xposition Yposition Zposition Zrotation Yrotation Xrotation
								JOINT HeadEnd
								{
									OFFSET 0.000000 0.000000 11.655090
									CHANNELS 6 Xposition Yposition Zposition Zrotation Yrotation Xrotation
									End Site
									{
										OFFSET 0.000000 0.000000 0.100006
									}
								}
							}
						}
					}
					JOINT RightShoulder
					{
						OFFSET -2.625397 0.000000 11.175217
						CHANNELS 6 Xposition Yposition Zposition Zrotation Yrotation Xrotation
						JOINT RightArm
						{
							OFFSET 0.000000 0.000000 10.434708
							CHANNELS 6 Xposition Yposition Zposition Zrotation Yrotation Xrotation
							JOINT RightForeArm
							{
								OFFSET 0.000000 0.000000 29.628418
								CHANNELS 6 Xposition Yposition Zposition Zrotation Yrotation Xrotation
								JOINT RightHand
								{
									OFFSET 0.000000 0.000000 22.857605
									CHANNELS 6 Xposition Yposition Zposition Zrotation Yrotation Xrotation
									JOINT RightHandThumb1
									{
										OFFSET -2.867310 -2.944275 3.959564
										CHANNELS 6 Xposition Yposition Zposition Zrotation Yrotation Xrotation
										JOINT RightHandThumb2
										{
											OFFSET 0.000000 0.000000 3.350403
											CHANNELS 6 Xposition Yposition Zposition Zrotation Yrotation Xrotation
											JOINT RightHandThumb3
											{
												OFFSET 0.000000 0.000000 3.756516
												CHANNELS 6 Xposition Yposition Zposition Zrotation Yrotation Xrotation
												JOINT RightHandThumb4
												{
													OFFSET 0.000000 0.000000 3.147339
													CHANNELS 6 Xposition Yposition Zposition Zrotation Yrotation Xrotation
													End Site
													{
														OFFSET 0.000000 0.000000 0.100006
													}
												}
											}
										}
									}
									JOINT RightHandIndex1
									{
										OFFSET -0.086761 -2.345276 10.030899
										CHANNELS 6 Xposition Yposition Zposition Zrotation Yrotation Xrotation
										JOINT RightHandIndex2
										{
											OFFSET 0.000000 0.000000 4.061096
											CHANNELS 6 Xposition Yposition Zposition Zrotation Yrotation Xrotation
											JOINT RightHandIndex3
											{
												OFFSET 0.000000 0.000000 3.248871
												CHANNELS 6 Xposition Yposition Zposition Zrotation Yrotation Xrotation
												JOINT RightHandIndex4
												{
													OFFSET 0.000000 0.000000 2.639709
													CHANNELS 6 Xposition Yposition Zposition Zrotation Yrotation Xrotation
													End Site
													{
														OFFSET 0.000000 0.000000 0.100006
													}
												}
											}
										}
									}
									JOINT RightHandMiddle1
									{
										OFFSET 0.104095 -0.006775 9.502945
										CHANNELS 6 Xposition Yposition Zposition Zrotation Yrotation Xrotation
										JOINT RightHandMiddle2
										{
											OFFSET 0.000000 0.000000 4.568726
											CHANNELS 6 Xposition Yposition Zposition Zrotation Yrotation Xrotation
											JOINT RightHandMiddle3
											{
												OFFSET 0.000000 0.000000 3.654984
												CHANNELS 6 Xposition Yposition Zposition Zrotation Yrotation Xrotation
												JOINT RightHandMiddle4
												{
													OFFSET 0.000000 0.000000 2.741241
													CHANNELS 6 Xposition Yposition Zposition Zrotation Yrotation Xrotation
													End Site
													{
														OFFSET 0.000000 0.000000 0.100006
													}
												}
											}
										}
									}
									JOINT RightHandRing1
									{
										OFFSET 0.086761 2.267456 8.921707
										CHANNELS 6 Xposition Yposition Zposition Zrotation Yrotation Xrotation
										JOINT RightHandRing2
										{
											OFFSET 0.000000 0.000000 4.061096
											CHANNELS 6 Xposition Yposition Zposition Zrotation Yrotation Xrotation
											JOINT RightHandRing3
											{
												OFFSET 0.000000 0.000000 3.654984
												CHANNELS 6 Xposition Yposition Zposition Zrotation Yrotation Xrotation
												JOINT RightHandRing4
												{
													OFFSET 0.000000 0.000000 2.741241
													CHANNELS 6 Xposition Yposition Zposition Zrotation Yrotation Xrotation
													End Site
													{
														OFFSET 0.000000 0.000000 0.100006
													}
												}
											}
										}
									}
									JOINT RightHandPinky1
									{
										OFFSET -0.173492 4.467224 7.976990
										CHANNELS 6 Xposition Yposition Zposition Zrotation Yrotation Xrotation
										JOINT RightHandPinky2
										{
											OFFSET 0.000000 0.000000 3.350403
											CHANNELS 6 Xposition Yposition Zposition Zrotation Yrotation Xrotation
											JOINT RightHandPinky3
											{
												OFFSET 0.000000 0.000000 2.842758
												CHANNELS 6 Xposition Yposition Zposition Zrotation Yrotation Xrotation
												JOINT RightHandPinky4
												{
													OFFSET 0.000000 0.000000 2.639709
													CHANNELS 6 Xposition Yposition Zposition Zrotation Yrotation Xrotation
													End Site
													{
														OFFSET 0.000000 0.000000 0.100006
													}
												}
											}
										}
									}
									JOINT RightForeArmEnd
									{
										OFFSET 0.000000 0.000000 0.000000
										CHANNELS 6 Xposition Yposition Zposition Zrotation Yrotation Xrotation
										End Site
										{
											OFFSET 0.000000 0.000000 0.100006
										}
									}
								}
								JOINT RightArmEnd
								{
									OFFSET 0.000000 0.000000 0.000000
									CHANNELS 6 Xposition Yposition Zposition Zrotation Yrotation Xrotation
									End Site
									{
										OFFSET 0.000000 0.000000 0.100006
									}
								}
							}
						}
					}
					JOINT LeftShoulder
					{
						OFFSET 2.625397 0.000000 11.175217
						CHANNELS 6 Xposition Yposition Zposition Zrotation Yrotation Xrotation
						JOINT LeftArm
						{
							OFFSET 0.000000 0.000000 10.813629
							CHANNELS 6 Xposition Yposition Zposition Zrotation Yrotation Xrotation
							JOINT LeftForeArm
							{
								OFFSET 0.000000 0.000000 28.724777
								CHANNELS 6 Xposition Yposition Zposition Zrotation Yrotation Xrotation
								JOINT LeftHand
								{
									OFFSET 0.644379 0.328857 25.716171
									CHANNELS 6 Xposition Yposition Zposition Zrotation Yrotation Xrotation
									JOINT LeftHandThumb1
									{
										OFFSET 2.867310 -2.944275 3.959564
										CHANNELS 6 Xposition Yposition Zposition Zrotation Yrotation Xrotation
										JOINT LeftHandThumb2
										{
											OFFSET 0.000000 0.000000 3.350403
											CHANNELS 6 Xposition Yposition Zposition Zrotation Yrotation Xrotation
											JOINT LeftHandThumb3
											{
												OFFSET 0.000000 0.000000 3.756516
												CHANNELS 6 Xposition Yposition Zposition Zrotation Yrotation Xrotation
												JOINT LeftHandThumb4
												{
													OFFSET 0.000000 0.000000 3.100006
													CHANNELS 6 Xposition Yposition Zposition Zrotation Yrotation Xrotation
													End Site
													{
														OFFSET 0.000000 0.000000 0.100006
													}
												}
											}
										}
									}
									JOINT LeftHandIndex1
									{
										OFFSET 0.086761 -2.345276 10.030899
										CHANNELS 6 Xposition Yposition Zposition Zrotation Yrotation Xrotation
										JOINT LeftHandIndex2
										{
											OFFSET 0.000000 0.000000 4.061096
											CHANNELS 6 Xposition Yposition Zposition Zrotation Yrotation Xrotation
											JOINT LeftHandIndex3
											{
												OFFSET 0.000000 0.000000 3.248871
												CHANNELS 6 Xposition Yposition Zposition Zrotation Yrotation Xrotation
												JOINT LeftHandIndex4
												{
													OFFSET 0.000000 0.000000 2.639709
													CHANNELS 6 Xposition Yposition Zposition Zrotation Yrotation Xrotation
													End Site
													{
														OFFSET 0.000000 0.000000 0.100006
													}
												}
											}
										}
									}
									JOINT LeftHandMiddle1
									{
										OFFSET -0.104095 -0.006775 9.502945
										CHANNELS 6 Xposition Yposition Zposition Zrotation Yrotation Xrotation
										JOINT LeftHandMiddle2
										{
											OFFSET 0.000000 0.000000 4.568726
											CHANNELS 6 Xposition Yposition Zposition Zrotation Yrotation Xrotation
											JOINT LeftHandMiddle3
											{
												OFFSET 0.000000 0.000000 3.654984
												CHANNELS 6 Xposition Yposition Zposition Zrotation Yrotation Xrotation
												JOINT LeftHandMiddle4
												{
													OFFSET 0.000000 0.000000 2.741241
													CHANNELS 6 Xposition Yposition Zposition Zrotation Yrotation Xrotation
													End Site
													{
														OFFSET 0.000000 0.000000 0.100006
													}
												}
											}
										}
									}
									JOINT LeftHandRing1
									{
										OFFSET -0.086761 2.267456 8.921707
										CHANNELS 6 Xposition Yposition Zposition Zrotation Yrotation Xrotation
										JOINT LeftHandRing2
										{
											OFFSET 0.000000 0.000000 4.061096
											CHANNELS 6 Xposition Yposition Zposition Zrotation Yrotation Xrotation
											JOINT LeftHandRing3
											{
												OFFSET 0.000000 0.000000 3.654984
												CHANNELS 6 Xposition Yposition Zposition Zrotation Yrotation Xrotation
												JOINT LeftHandRing4
												{
													OFFSET 0.000000 0.000000 2.741241
													CHANNELS 6 Xposition Yposition Zposition Zrotation Yrotation Xrotation
													End Site
													{
														OFFSET 0.000000 0.000000 0.100006
													}
												}
											}
										}
									}
									JOINT LeftHandPinky1
									{
										OFFSET 0.173492 4.467224 7.976990
										CHANNELS 6 Xposition Yposition Zposition Zrotation Yrotation Xrotation
										JOINT LeftHandPinky2
										{
											OFFSET 0.000000 0.000000 3.350403
											CHANNELS 6 Xposition Yposition Zposition Zrotation Yrotation Xrotation
											JOINT LeftHandPinky3
											{
												OFFSET 0.000000 0.000000 2.842758
												CHANNELS 6 Xposition Yposition Zposition Zrotation Yrotation Xrotation
												JOINT LeftHandPinky4
												{
													OFFSET 0.000000 0.000000 2.639709
													CHANNELS 6 Xposition Yposition Zposition Zrotation Yrotation Xrotation
													End Site
													{
														OFFSET 0.000000 0.000000 0.100006
													}
												}
											}
										}
									}
									JOINT LeftForeArmEnd
									{
										OFFSET 0.000000 0.000000 0.000000
										CHANNELS 6 Xposition Yposition Zposition Zrotation Yrotation Xrotation
										End Site
										{
											OFFSET 0.000000 0.000000 0.100006
										}
									}
								}
								JOINT LeftArmEnd
								{
									OFFSET 0.000000 0.000000 0.000000
									CHANNELS 6 Xposition Yposition Zposition Zrotation Yrotation Xrotation
									End Site
									{
										OFFSET 0.000000 0.000000 0.100006
									}
								}
							}
						}
					}
				}
			}
		}
	}
	JOINT RightUpLeg
	{
		OFFSET -11.289948 0.000000 0.000000
		CHANNELS 6 Xposition Yposition Zposition Zrotation Yrotation Xrotation
		JOINT RightLeg
		{
			OFFSET 0.000000 0.000000 -38.200329
			CHANNELS 6 Xposition Yposition Zposition Zrotation Yrotation Xrotation
			JOINT RightFoot
			{
				OFFSET 0.000000 0.000000 -39.900856
				CHANNELS 6 Xposition Yposition Zposition Zrotation Yrotation Xrotation
				JOINT RightToeBase
				{
					OFFSET 0.000000 -15.261658 0.000002
					CHANNELS 6 Xposition Yposition Zposition Zrotation Yrotation Xrotation
					JOINT RightToeBaseEnd
					{
						OFFSET 0.000000 -7.370728 0.000000
						CHANNELS 6 Xposition Yposition Zposition Zrotation Yrotation Xrotation
						End Site
						{
							OFFSET 0.000000 0.000000 0.100000
						}
					}
				}
				JOINT RightLegEnd
				{
					OFFSET 0.000000 0.000000 0.000000
					CHANNELS 6 Xposition Yposition Zposition Zrotation Yrotation Xrotation
					End Site
					{
						OFFSET 0.000000 0.000000 0.100000
					}
				}
			}
			JOINT RightUpLegEnd
			{
				OFFSET 0.000000 0.000000 0.000000
				CHANNELS 6 Xposition Yposition Zposition Zrotation Yrotation Xrotation
				End Site
				{
					OFFSET 0.000000 0.000000 0.099998
				}
			}
		}
	}
	JOINT LeftUpLeg
	{
		OFFSET 11.315674 0.000000 0.000000
		CHANNELS 6 Xposition Yposition Zposition Zrotation Yrotation Xrotation
		JOINT LeftLeg
		{
			OFFSET 0.000000 0.000000 -38.200329
			CHANNELS 6 Xposition Yposition Zposition Zrotation Yrotation Xrotation
			JOINT LeftFoot
			{
				OFFSET 0.000000 0.000000 -39.900856
				CHANNELS 6 Xposition Yposition Zposition Zrotation Yrotation Xrotation
				JOINT LeftToeBase
				{
					OFFSET 0.000000 -15.261658 0.000002
					CHANNELS 6 Xposition Yposition Zposition Zrotation Yrotation Xrotation
					JOINT LeftToeBaseEnd
					{
						OFFSET 0.000000 -7.539978 0.000000
						CHANNELS 6 Xposition Yposition Zposition Zrotation Yrotation Xrotation
						End Site
						{
							OFFSET 0.000000 0.000000 0.100000
						}
					}
				}
				JOINT LeftLegEnd
				{
					OFFSET 0.000000 0.000000 0.000000
					CHANNELS 6 Xposition Yposition Zposition Zrotation Yrotation Xrotation
					End Site
					{
						OFFSET 0.000000 0.000000 0.100000
					}
				}
			}
			JOINT LeftUpLegEnd
			{
				OFFSET 0.000000 0.000000 0.000000
				CHANNELS 6 Xposition Yposition Zposition Zrotation Yrotation Xrotation
				End Site
				{
					OFFSET 0.000000 0.000000 0.099998
				}
			}
		}
	}
}
MOTION
Frames: 2
Frame Time: 0.016667
-16.273041 -27.698120 86.261017 34.653279 1.645334 -12.652088 0.000006 2.080052 8.814253 1.037184 -4.936969 8.948980 0.000006 0.000015 8.844157 1.464964 -0.937213 4.360801 -0.000007 -0.000021 11.682290 13.448836 2.540173 7.825215 -0.000014 -0.000021 11.746689 7.521532 4.258819 7.637485 0.000015 -0.000001 17.658270 -18.442974 -20.820683 2.225208 0.000006 -0.000010 5.101521 -13.032811 -1.731375 -9.014855 -0.000009 -0.000016 5.101538 -1.302894 -3.488119 -10.370214 -0.000008 -0.000002 11.655077 0.000000 -0.000000 -0.000000 -2.625385 0.000008 11.175220 21.441490 -79.297957 0.000073 -0.000008 -0.000017 10.434738 -75.834422 -27.571223 53.885787 -0.000009 -0.000021 29.628420 0.977035 -0.260346 17.209056 0.000023 0.000046 22.857582 -15.177836 -26.262378 -11.442838 -2.867302 -2.944260 3.959518 31.542090 -18.150164 50.178716 0.000011 -0.000008 3.350410 -14.636458 9.151782 -26.138156 0.000000 -0.000011 3.756500 -9.712222 7.081466 -17.867862 -0.000008 -0.000020 3.147340 0.000002 0.000001 -0.000003 -0.086777 -2.345253 10.030899 -12.888655 -19.813670 13.406124 -0.000019 0.000029 4.061106 0.208599 -15.184176 2.185931 -0.000012 0.000016 3.248877 -0.291377 -15.184033 2.185910 0.000003 0.000012 2.639711 -0.000002 -0.000000 -0.000000 0.104076 -0.006797 9.502937 -7.938933 -22.065901 7.307117 0.000006 -0.000017 4.568721 0.379606 -15.961210 0.858866 -0.000001 -0.000019 3.654974 -0.120412 -15.961368 0.858875 -0.000039 0.000013 2.741232 -0.000002 -0.000000 -0.000001 0.086749 2.267453 8.921695 -0.444157 -28.998323 0.005629 -0.000001 -0.000017 4.061104 -0.762248 -20.532283 -1.312578 -0.000004 -0.000018 3.654975 0.237754 -20.532235 -1.312597 0.000002 -0.000010 2.741236 0.000001 -0.000002 -0.000000 -0.173492 4.467226 7.976997 8.566515 -33.064188 -11.129511 0.000008 0.000019 3.350395 -0.927512 -24.173197 -5.005341 0.000033 -0.000007 2.842770 1.072477 -24.173187 -5.005340 -0.000003 -0.000019 2.639725 0.000002 -0.000000 -0.000000 -0.000016 -0.000014 -0.000008 0.000002 -0.000002 -0.000000 0.000013 0.000005 0.000000 0.000001 0.000001 -0.000003 2.625381 -0.000014 11.175206 -8.394835 71.962648 0.669802 0.000004 -0.000029 10.813633 78.631187 52.008182 74.007265 -0.000034 0.000015 28.724762 -24.094416 -1.490476 132.934619 0.644344 0.328819 25.716202 19.497033 31.586681 -40.794531 2.867310 -2.944290 3.959526 -32.365026 13.750583 57.171928 0.000011 -0.000080 3.350473 5.044799 -4.261319 -9.635014 -0.000041 0.000004 3.756523 3.426221 -3.050288 -6.647911 -0.000033 -0.000002 3.100014 0.000001 0.000000 -0.000001 0.086720 -2.345295 10.030899 -11.454397 -14.059328 9.041911 -0.000039 -0.000058 4.061095 0.502223 -0.000024 -0.000039 -0.000022 0.000017 3.248877 0.002108 -0.000003 0.000041 -0.000039 -0.000012 2.639717 0.000003 -0.000002 0.000001 -0.104130 -0.006755 9.502922 -5.384748 -10.171362 2.213865 0.000014 -0.000090 4.568744 0.506425 0.055960 0.000492 -0.000022 -0.000038 3.654985 0.006193 -0.031104 -0.000004 -0.000027 0.000001 2.741266 0.000000 -0.000001 -0.000001 -0.086802 2.267464 8.921675 5.088615 3.843438 -5.450285 -0.000048 0.000030 4.061094 -0.996883 2.415571 0.147821 -0.000049 -0.000019 3.654995 0.003120 2.415561 0.147835 -0.000048 -0.000014 2.741259 0.000002 0.000002 -0.000000 0.173454 4.467144 7.977028 17.159237 22.121610 -9.614979 -0.000050 0.000029 3.350430 -1.681542 13.537752 2.682530 -0.000097 0.000022 2.842783 0.318448 13.537748 2.682545 -0.000045 -0.000017 2.639725 0.000003 0.000001 -0.000001 -0.000013 0.000020 -0.000005 -0.000002 -0.000001 0.000001 -0.000003 -0.000008 0.000012 0.000000 -0.000002 0.000001 -11.289895 0.000006 0.000011 -23.329831 9.109603 5.182310 0.000044 0.000059 -38.200287 -0.815858 0.462407 29.541156 -0.000010 -0.000088 -39.900864 -22.733890 -10.351736 13.007936 0.000012 -15.261724 0.000039 1.686933 1.373083 -20.196623 0.000012 -7.370665 0.000001 -0.000000 0.000000 0.000001 0.000015 -0.000003 -0.000002 0.000001 0.000000 -0.000002 0.000030 0.000004 0.000004 -0.000000 -0.000000 0.000001 11.315619 0.000047 0.000009 -25.650374 -2.227208 -7.012082 -0.000004 0.000039 -38.200306 0.804380 -0.533190 33.402313 0.000008 -0.000027 -39.900852 0.366930 1.106927 13.795427 0.000019 -15.261639 0.000023 -1.127615 -0.532877 -21.909297 -0.000004 -7.539974 -0.000001 -0.000001 -0.000000 0.000001 -0.000013 0.000060 -0.000000 0.000000 0.000001 0.000000 -0.000000 0.000003 -0.000005 -0.000000 0.000000 -0.000001 
-15.533539 -27.511353 86.227814 37.097650 1.301824 -12.648635 0.000010 2.080089 8.814240 0.922381 -4.595095 8.908479 -0.000007 -0.000009 8.844160 1.397945 -0.866714 4.309132 0.000003 0.000004 11.682272 12.360314 2.618907 8.077934 0.000012 0.000026 11.746691 6.955798 4.416774 7.618665 -0.000023 -0.000002 17.658268 -18.219379 -20.861413 2.352870 -0.000005 0.000000 5.101519 -12.676713 -1.837837 -8.984901 -0.000012 0.000017 5.101528 -1.241019 -3.571375 -10.585688 -0.000005 -0.000001 11.655056 0.000000 -0.000000 0.000000 -2.625393 0.000010 11.175212 20.457583 -80.587872 -0.035712 0.000015 0.000019 10.434723 -77.446730 -29.802253 55.055245 0.000039 -0.000015 29.628418 -2.720990 -0.493716 17.080737 0.000053 0.000107 22.857567 -16.526032 -26.504926 -10.698679 -2.867352 -2.944275 3.959549 31.542094 -18.150161 50.178709 -0.000008 0.000061 3.350395 -14.636448 9.151776 -26.138075 -0.000015 -0.000008 3.756519 -9.712269 7.081434 -17.867934 0.000013 0.000006 3.147329 -0.000003 -0.000000 0.000002 -0.086800 -2.345234 10.030899 -12.679896 -19.016346 14.644185 0.000018 -0.000005 4.061087 0.225306 -14.755311 2.121318 0.000008 0.000027 3.248861 -0.274694 -14.755362 2.121292 -0.000008 -0.000008 2.639696 -0.000001 -0.000000 -0.000000 0.104069 -0.006800 9.502968 -7.661818 -20.864920 7.369852 -0.000003 0.000049 4.568737 0.392450 -15.111339 0.810872 -0.000000 0.000015 3.654989 -0.107566 -15.111341 0.810865 -0.000002 -0.000001 2.741234 0.000000 0.000000 -0.000001 0.086727 2.267455 8.921698 0.060741 -26.003623 -1.849072 0.000045 -0.000022 4.061109 -0.808773 -18.511127 -1.173357 0.000039 -0.000012 3.654978 0.191226 -18.511010 -1.173376 -0.000024 -0.000006 2.741230 0.000001 0.000001 -0.000000 -0.173521 4.467255 7.977005 8.684130 -28.036994 -14.431539 -0.000019 0.000074 3.350391 -1.182808 -21.293996 -4.345010 -0.000000 -0.000026 2.842751 0.817223 -21.293986 -4.345023 0.000010 0.000029 2.639722 -0.000003 -0.000001 -0.000000 -0.000047 0.000016 -0.000006 -0.000003 0.000000 0.000001 0.000003 0.000003 -0.000027 0.000001 -0.000001 -0.000001 2.625389 -0.000025 11.175220 -9.206650 72.615409 0.755721 0.000004 -0.000017 10.813625 73.553453 50.046811 73.654206 0.000027 0.000023 28.724731 -24.276845 -1.255088 133.574827 0.644369 0.328857 25.716187 23.437876 30.438489 -38.640982 2.867310 -2.944275 3.959496 -32.415962 13.591552 57.445648 0.000019 -0.000069 3.350422 4.708398 -4.020499 -9.020808 -0.000050 0.000011 3.756546 3.201695 -2.871510 -6.226794 -0.000028 -0.000009 3.100003 0.000001 0.000001 -0.000002 0.086681 -2.345272 10.030891 -11.529754 -14.311254 12.960511 -0.000027 0.000006 4.061097 0.503123 -0.000015 -0.000041 -0.000034 -0.000015 3.248875 0.002964 -0.000007 0.000043 -0.000038 0.000021 2.639718 -0.000003 -0.000001 -0.000003 -0.104080 -0.006773 9.502922 -5.820207 -12.264453 4.891354 -0.000014 -0.000035 4.568756 0.508333 -0.000001 -0.000005 -0.000025 -0.000048 3.655011 0.007959 0.000006 0.000001 -0.000075 0.000002 2.741260 -0.000001 -0.000000 -0.000001 -0.086813 2.267477 8.921713 3.862916 -3.058219 -5.981879 0.000012 0.000004 4.061099 -1.000492 -0.000002 -0.000005 -0.000019 -0.000025 3.655002 -0.000404 0.000001 -0.000003 -0.000042 -0.000000 2.741267 -0.000001 0.000002 0.000000 0.173477 4.467152 7.976997 14.086198 11.538526 -14.931125 -0.000025 -0.000017 3.350392 -1.947750 5.538875 1.080152 -0.000022 0.000001 2.842752 0.052251 5.539545 1.080150 -0.000033 0.000002 2.639708 -0.000001 0.000001 -0.000001 -0.000006 -0.000011 -0.000014 -0.000001 0.000002 -0.000000 0.000000 -0.000018 -0.000007 0.000003 -0.000001 0.000001 -11.289918 0.000030 0.000000 -23.782686 10.166005 4.108543 0.000036 0.000064 -38.200291 -0.769674 0.478711 31.878204 -0.000014 -0.000054 -39.900860 -23.766555 -11.146077 14.104306 0.000018 -15.261720 0.000033 1.520031 1.447810 -21.207683 -0.000002 -7.370664 0.000001 -0.000000 0.000000 0.000000 0.000011 0.000062 0.000000 -0.000000 0.000000 -0.000001 0.000031 0.000058 -0.000005 0.000001 -0.000002 -0.000001 11.315645 -0.000022 -0.000002 -26.311890 -1.291692 -7.566255 -0.000020 0.000082 -38.200329 0.818751 -0.533739 33.097734 -0.000001 0.000031 -39.900856 -0.905946 0.552061 14.021563 0.000032 -15.261667 0.000022 -1.185750 -0.395228 -21.942046 0.000004 -7.539981 -0.000000 0.000000 0.000001 -0.000000 0.000006 -0.000005 0.000001 0.000001 -0.000000 0.000001 -0.000020 0.000003 -0.000003 -0.000001 -0.000000 -0.000000 
